<mxfile host="Electron" agent="Mozilla/5.0 (X11; Linux x86_64) AppleWebKit/537.36 (KHTML, like Gecko) draw.io/24.7.8 Chrome/128.0.6613.162 Electron/32.1.2 Safari/537.36" version="24.7.8">
  <diagram name="Page-1" id="kSOgdTP2x3WsdepgM7Um">
    <mxGraphModel dx="819" dy="484" grid="1" gridSize="10" guides="1" tooltips="1" connect="1" arrows="1" fold="1" page="1" pageScale="1" pageWidth="850" pageHeight="1100" math="0" shadow="0">
      <root>
        <mxCell id="0" />
        <mxCell id="1" parent="0" />
        <mxCell id="1a4fFaVLMqBWNBD4TFdm-1" value="&lt;font style=&quot;font-size: 16px;&quot; face=&quot;Fira Code&quot;&gt;0x12345678&lt;/font&gt;" style="rounded=0;whiteSpace=wrap;html=1;" vertex="1" parent="1">
          <mxGeometry x="160" y="180" width="120" height="40" as="geometry" />
        </mxCell>
        <mxCell id="1a4fFaVLMqBWNBD4TFdm-2" value="&lt;font face=&quot;Fira Code&quot; style=&quot;font-size: 15px;&quot;&gt;0x12&lt;/font&gt;" style="rounded=0;whiteSpace=wrap;html=1;" vertex="1" parent="1">
          <mxGeometry x="360" y="120" width="40" height="40" as="geometry" />
        </mxCell>
        <mxCell id="1a4fFaVLMqBWNBD4TFdm-3" value="&lt;font face=&quot;Fira Code&quot; style=&quot;font-size: 15px;&quot;&gt;0x34&lt;/font&gt;" style="rounded=0;whiteSpace=wrap;html=1;" vertex="1" parent="1">
          <mxGeometry x="400" y="120" width="40" height="40" as="geometry" />
        </mxCell>
        <mxCell id="1a4fFaVLMqBWNBD4TFdm-4" value="&lt;font face=&quot;Fira Code&quot; style=&quot;font-size: 15px;&quot;&gt;0x56&lt;/font&gt;" style="rounded=0;whiteSpace=wrap;html=1;" vertex="1" parent="1">
          <mxGeometry x="440" y="120" width="40" height="40" as="geometry" />
        </mxCell>
        <mxCell id="1a4fFaVLMqBWNBD4TFdm-5" value="&lt;font face=&quot;Fira Code&quot; style=&quot;font-size: 15px;&quot;&gt;0x78&lt;/font&gt;" style="rounded=0;whiteSpace=wrap;html=1;" vertex="1" parent="1">
          <mxGeometry x="480" y="120" width="40" height="40" as="geometry" />
        </mxCell>
        <mxCell id="1a4fFaVLMqBWNBD4TFdm-7" value="&lt;font face=&quot;Fira Code&quot; style=&quot;font-size: 15px;&quot;&gt;...&lt;/font&gt;" style="rounded=0;whiteSpace=wrap;html=1;" vertex="1" parent="1">
          <mxGeometry x="520" y="120" width="40" height="40" as="geometry" />
        </mxCell>
        <mxCell id="1a4fFaVLMqBWNBD4TFdm-8" value="" style="endArrow=classic;startArrow=classic;html=1;rounded=0;" edge="1" parent="1">
          <mxGeometry width="50" height="50" relative="1" as="geometry">
            <mxPoint x="360" y="110" as="sourcePoint" />
            <mxPoint x="520" y="110" as="targetPoint" />
          </mxGeometry>
        </mxCell>
        <mxCell id="1a4fFaVLMqBWNBD4TFdm-9" value="32 bits" style="edgeLabel;html=1;align=center;verticalAlign=middle;resizable=0;points=[];" vertex="1" connectable="0" parent="1a4fFaVLMqBWNBD4TFdm-8">
          <mxGeometry x="-0.2875" y="-1" relative="1" as="geometry">
            <mxPoint x="23" as="offset" />
          </mxGeometry>
        </mxCell>
        <mxCell id="1a4fFaVLMqBWNBD4TFdm-11" value="&lt;font face=&quot;Fira Code&quot; style=&quot;font-size: 15px;&quot;&gt;0x12&lt;/font&gt;" style="rounded=0;whiteSpace=wrap;html=1;" vertex="1" parent="1">
          <mxGeometry x="480" y="240" width="40" height="40" as="geometry" />
        </mxCell>
        <mxCell id="1a4fFaVLMqBWNBD4TFdm-12" value="&lt;font face=&quot;Fira Code&quot; style=&quot;font-size: 15px;&quot;&gt;0x34&lt;/font&gt;" style="rounded=0;whiteSpace=wrap;html=1;" vertex="1" parent="1">
          <mxGeometry x="440" y="240" width="40" height="40" as="geometry" />
        </mxCell>
        <mxCell id="1a4fFaVLMqBWNBD4TFdm-13" value="&lt;font face=&quot;Fira Code&quot; style=&quot;font-size: 15px;&quot;&gt;0x56&lt;/font&gt;" style="rounded=0;whiteSpace=wrap;html=1;" vertex="1" parent="1">
          <mxGeometry x="400" y="240" width="40" height="40" as="geometry" />
        </mxCell>
        <mxCell id="1a4fFaVLMqBWNBD4TFdm-14" value="&lt;font face=&quot;Fira Code&quot; style=&quot;font-size: 15px;&quot;&gt;0x78&lt;/font&gt;" style="rounded=0;whiteSpace=wrap;html=1;" vertex="1" parent="1">
          <mxGeometry x="360" y="240" width="40" height="40" as="geometry" />
        </mxCell>
        <mxCell id="1a4fFaVLMqBWNBD4TFdm-15" value="&lt;font face=&quot;Fira Code&quot; style=&quot;font-size: 15px;&quot;&gt;...&lt;/font&gt;" style="rounded=0;whiteSpace=wrap;html=1;" vertex="1" parent="1">
          <mxGeometry x="520" y="240" width="40" height="40" as="geometry" />
        </mxCell>
        <mxCell id="1a4fFaVLMqBWNBD4TFdm-16" value="" style="endArrow=classic;startArrow=classic;html=1;rounded=0;" edge="1" parent="1">
          <mxGeometry width="50" height="50" relative="1" as="geometry">
            <mxPoint x="360" y="230" as="sourcePoint" />
            <mxPoint x="520" y="230" as="targetPoint" />
          </mxGeometry>
        </mxCell>
        <mxCell id="1a4fFaVLMqBWNBD4TFdm-17" value="32 bits" style="edgeLabel;html=1;align=center;verticalAlign=middle;resizable=0;points=[];" vertex="1" connectable="0" parent="1a4fFaVLMqBWNBD4TFdm-16">
          <mxGeometry x="-0.2875" y="-1" relative="1" as="geometry">
            <mxPoint x="23" as="offset" />
          </mxGeometry>
        </mxCell>
        <mxCell id="1a4fFaVLMqBWNBD4TFdm-18" value="" style="endArrow=classic;startArrow=classic;html=1;rounded=0;entryX=0;entryY=0.5;entryDx=0;entryDy=0;exitX=1;exitY=0.25;exitDx=0;exitDy=0;" edge="1" parent="1" source="1a4fFaVLMqBWNBD4TFdm-1" target="1a4fFaVLMqBWNBD4TFdm-2">
          <mxGeometry width="50" height="50" relative="1" as="geometry">
            <mxPoint x="280" y="170" as="sourcePoint" />
            <mxPoint x="330" y="120" as="targetPoint" />
          </mxGeometry>
        </mxCell>
        <mxCell id="1a4fFaVLMqBWNBD4TFdm-19" value="" style="endArrow=classic;startArrow=classic;html=1;rounded=0;entryX=0;entryY=0.5;entryDx=0;entryDy=0;exitX=1;exitY=0.75;exitDx=0;exitDy=0;" edge="1" parent="1" source="1a4fFaVLMqBWNBD4TFdm-1" target="1a4fFaVLMqBWNBD4TFdm-14">
          <mxGeometry width="50" height="50" relative="1" as="geometry">
            <mxPoint x="280" y="190" as="sourcePoint" />
            <mxPoint x="360" y="160" as="targetPoint" />
          </mxGeometry>
        </mxCell>
        <mxCell id="1a4fFaVLMqBWNBD4TFdm-20" value="Valor que representan" style="text;html=1;align=center;verticalAlign=middle;whiteSpace=wrap;rounded=0;" vertex="1" parent="1">
          <mxGeometry x="160" y="150" width="120" height="30" as="geometry" />
        </mxCell>
        <mxCell id="1a4fFaVLMqBWNBD4TFdm-21" value="Big endian" style="text;html=1;align=center;verticalAlign=middle;whiteSpace=wrap;rounded=0;" vertex="1" parent="1">
          <mxGeometry x="360" y="80" width="200" height="30" as="geometry" />
        </mxCell>
        <mxCell id="1a4fFaVLMqBWNBD4TFdm-22" value="Little endian" style="text;html=1;align=center;verticalAlign=middle;whiteSpace=wrap;rounded=0;" vertex="1" parent="1">
          <mxGeometry x="360" y="200" width="200" height="30" as="geometry" />
        </mxCell>
      </root>
    </mxGraphModel>
  </diagram>
</mxfile>
